<svg xmlns="http://www.w3.org/2000/svg" width="1000" height="560" viewBox="0 0 1000 560" role="img" aria-labelledby="title desc"><title id="title">CoPhy Collision: original task schematic</title><desc id="desc">Contact reveals persistent object properties. Two abstract interactions illustrate approaching and following collisions with matched object properties. Geometry and motion cues are hand-authored explanations, not dataset frames, simulation outputs or learned-model predictions.</desc><defs><marker id="arrow-purple" markerWidth="9" markerHeight="9" refX="7" refY="4" orient="auto" markerUnits="userSpaceOnUse"><path d="M0 0 L8 4 L0 8 Z" fill="#64427e"/></marker><marker id="arrow-gold" markerWidth="9" markerHeight="9" refX="7" refY="4" orient="auto" markerUnits="userSpaceOnUse"><path d="M0 0 L8 4 L0 8 Z" fill="#bd965b"/></marker><marker id="arrow-muted" markerWidth="9" markerHeight="9" refX="7" refY="4" orient="auto" markerUnits="userSpaceOnUse"><path d="M0 0 L8 4 L0 8 Z" fill="#756e7a"/></marker></defs><g font-family="Arial, Helvetica, sans-serif"><rect x="0" y="0" width="1000" height="560" rx="0" fill="#fdfbf7" opacity="1"/><text x="42" y="37" font-size="13" fill="#64427e" font-weight="700" text-anchor="start">COPHY  /  TASK SCHEMATIC</text><text x="42" y="83" font-size="35" fill="#29252e" font-weight="600" text-anchor="start">Collision</text><text x="42" y="112" font-size="18" fill="#756e7a" font-weight="400" text-anchor="start">Contact reveals persistent object properties.</text><rect x="42" y="139" width="429" height="277" rx="14" fill="#ffffff" opacity="1" stroke="#ded7e1" stroke-width="2"/><text x="64" y="172" font-size="15" fill="#756e7a" font-weight="600" text-anchor="start">Interaction A</text><rect x="529" y="139" width="429" height="277" rx="14" fill="#ffffff" opacity="1" stroke="#ded7e1" stroke-width="2"/><text x="551" y="172" font-size="15" fill="#756e7a" font-weight="600" text-anchor="start">Interaction B</text><rect x="73" y="362" width="366" height="12" rx="5" fill="#edeae4" opacity="1"/><path d="M73 362 H439" stroke="#ded7e1" stroke-width="2"/><g opacity="1"><circle cx="139" cy="326" r="35" fill="#64427e" opacity="1"/><circle cx="129.55" cy="315.5" r="7.35" fill="#ffffff" opacity="0.25"/></g><g opacity="1"><circle cx="327" cy="326" r="35" fill="#bd965b" opacity="1"/><circle cx="317.55" cy="315.5" r="7.35" fill="#ffffff" opacity="0.25"/></g><g opacity="0.09"><circle cx="94" cy="326" r="35" fill="#64427e" opacity="1"/><circle cx="84.55" cy="315.5" r="7.35" fill="#ffffff" opacity="0.25"/></g><g opacity="0.09"><circle cx="371" cy="326" r="35" fill="#bd965b" opacity="1"/><circle cx="361.55" cy="315.5" r="7.35" fill="#ffffff" opacity="0.25"/></g><path d="M145 255 H222" fill="none" stroke="#64427e" stroke-width="3" stroke-linecap="round" marker-end="url(#arrow-purple)"/><path d="M321 255 H259" fill="none" stroke="#bd965b" stroke-width="3" stroke-linecap="round" marker-end="url(#arrow-gold)"/><text x="255" y="219" font-size="15" fill="#756e7a" font-weight="400" text-anchor="middle">approach</text><g stroke="#aa8b9c" stroke-width="2" stroke-linecap="round"><path d="M229 304 L239 313 M250 297 V310 M272 304 L262 313"/></g><text x="256" y="394" font-size="15" fill="#756e7a" font-weight="400" text-anchor="middle">Contact redirects motion</text><rect x="560" y="362" width="366" height="12" rx="5" fill="#edeae4" opacity="1"/><path d="M560 362 H926" stroke="#ded7e1" stroke-width="2"/><g opacity="1"><circle cx="631" cy="326" r="35" fill="#64427e" opacity="1"/><circle cx="621.55" cy="315.5" r="7.35" fill="#ffffff" opacity="0.25"/></g><g opacity="1"><circle cx="819" cy="326" r="35" fill="#bd965b" opacity="1"/><circle cx="809.55" cy="315.5" r="7.35" fill="#ffffff" opacity="0.25"/></g><g opacity="0.09"><circle cx="585" cy="326" r="35" fill="#64427e" opacity="1"/><circle cx="575.55" cy="315.5" r="7.35" fill="#ffffff" opacity="0.25"/></g><g opacity="0.09"><circle cx="789" cy="326" r="35" fill="#bd965b" opacity="1"/><circle cx="779.55" cy="315.5" r="7.35" fill="#ffffff" opacity="0.25"/></g><path d="M613 255 H715" fill="none" stroke="#64427e" stroke-width="3" stroke-linecap="round" marker-end="url(#arrow-purple)"/><path d="M800 255 H856" fill="none" stroke="#bd965b" stroke-width="3" stroke-linecap="round" marker-end="url(#arrow-gold)"/><text x="744" y="219" font-size="15" fill="#756e7a" font-weight="400" text-anchor="middle">catch up</text><text x="744" y="394" font-size="15" fill="#756e7a" font-weight="400" text-anchor="middle">A different initial motion</text><circle cx="500" cy="277" r="19" fill="#eee6f3" opacity="1"/><g fill="none" stroke="#64427e" stroke-width="2.3"><rect x="489" y="271" width="15" height="10" rx="5" transform="rotate(-35 496.5 276)"/><rect x="498" y="274" width="15" height="10" rx="5" transform="rotate(-35 505.5 279)"/></g><rect x="42" y="438" width="916" height="62" rx="10" fill="#eee6f3" opacity="1"/><text x="64" y="462" font-size="11" fill="#64427e" font-weight="700" text-anchor="start">PERSISTS</text><text x="64" y="486" font-size="18" fill="#29252e" font-weight="500" text-anchor="start">Matched object properties · mass probe</text><path d="M500 450 V489" stroke="#ded7e1" stroke-width="1.5"/><text x="522" y="462" font-size="11" fill="#64427e" font-weight="700" text-anchor="start">CHANGES</text><text x="522" y="486" font-size="18" fill="#29252e" font-weight="500" text-anchor="start">Starting motion and interaction</text><text x="42" y="537" font-size="14" fill="#756e7a" font-weight="400" text-anchor="start">Original task schematic; not a model rollout.</text></g></svg>
